<svg width="40" height="40" viewBox="0 0 40 40" fill="none" xmlns="http://www.w3.org/2000/svg">
<path fill-rule="evenodd" clip-rule="evenodd" d="M24.5 9.5C25.2932 9.5 25.9804 9.81424 26.5317 10.3699L29.6326 13.4708C30.1886 14.0268 30.5 14.7091 30.5 15.5C30.5 16.2858 30.191 17.1009 29.6326 17.6594L18.3353 28.9513C17.5499 29.8573 16.4366 30.4139 15.1346 30.5023H11H9.5V29.0023L9.50487 24.747C9.60047 23.5637 10.1506 22.4634 10.9729 21.7399L22.3414 10.3715C22.8993 9.81077 23.7131 9.5 24.5 9.5ZM13.0274 23.9241C12.719 24.1968 12.5283 24.5783 12.5 24.8678V27.5037L15.0287 27.5061C15.4305 27.4776 15.8046 27.2906 16.1412 26.9081L22.714 20.3353L19.6663 17.2876L13.0274 23.9241ZM21.788 15.1666L24.8353 18.214L27.4842 15.5651L24.4374 12.5182L21.788 15.1666Z" fill="#9A9AB0"/>
</svg>
